<svg xmlns="http://www.w3.org/2000/svg" xmlns:xlink="http://www.w3.org/1999/xlink" width="130" height="130" viewBox="0 0 130 130">
    <defs>
        <circle id="a" cx="65" cy="65" r="65"/>
    </defs>
    <g fill="none" fill-rule="evenodd">
        <mask id="b" fill="#fff">
            <use xlink:href="#a"/>
        </mask>
        <use fill="#86DBC7" xlink:href="#a"/>
        <g stroke="#004F8C" stroke-linecap="round" stroke-linejoin="round" stroke-width="4" mask="url(#b)">
            <path d="M85 28.727L87.667 24M90.333 35.818H93"/>
        </g>
        <g mask="url(#b)">
            <path d="M77.445 95.808a26.494 26.494 0 0 1-12.356-3.042l-15.132 3.972 4.648-13.908a26.306 26.306 0 0 1-3.715-13.512c0-14.631 11.889-26.49 26.555-26.49 1.471 0 2.905.15 4.31.38v-2.153A5.061 5.061 0 0 0 76.688 36h-44.62a5.062 5.062 0 0 0-5.069 5.055v88.89A5.061 5.061 0 0 0 32.068 135h44.62a5.061 5.061 0 0 0 5.067-5.054V95.429c-1.405.228-2.839.379-4.31.379"/>
            <path fill="#FFFBE5" stroke="#004F8C" stroke-linecap="round" stroke-linejoin="round" stroke-width="4" d="M81.755 41.055A5.061 5.061 0 0 0 76.688 36h-44.62a5.062 5.062 0 0 0-5.069 5.055v88.89A5.061 5.061 0 0 0 32.068 135h44.62a5.061 5.061 0 0 0 5.067-5.054v-88.89z"/>
            <path d="M52.957 101.737l4.648-13.908a26.306 26.306 0 0 1-3.715-13.512c0-14.63 11.889-26.489 26.555-26.489s26.554 11.86 26.554 26.49c0 14.63-11.888 26.489-26.554 26.489a26.494 26.494 0 0 1-12.356-3.042l-15.132 3.972z"/>
            <path fill="#A9D166" stroke="#004F8C" stroke-linecap="round" stroke-linejoin="round" stroke-width="4" d="M52.957 101.737l4.648-13.908a26.306 26.306 0 0 1-3.715-13.512c0-14.63 11.889-26.489 26.555-26.489s26.554 11.86 26.554 26.49c0 14.63-11.888 26.489-26.554 26.489a26.494 26.494 0 0 1-12.356-3.042l-15.132 3.972z"/>
            <g transform="translate(69.522 56.522)">
                <path fill="#F0C900" stroke="#004889" stroke-linecap="round" stroke-linejoin="round" stroke-width="3.391" d="M0 13.079h23.063v17.648H0z"/>
                <rect width="6.217" height="8.478" x="8.478" y="17.522" fill="#004889" rx="3.109"/>
                <path stroke="#004889" stroke-linecap="round" stroke-linejoin="round" stroke-width="3.391" d="M5.125 7.622V5.847C5.125 2.63 7.967 0 11.44 0c3.473 0 6.314 2.631 6.314 5.847v6.838"/>
            </g>
            <path stroke="#004F8C" stroke-linecap="round" stroke-linejoin="round" stroke-width="4" d="M75.32 96.16l-7.231 1.605"/>
            <path d="M55.949 128.172h-3.142a1.848 1.848 0 0 1-1.851-1.846v-3.134c0-1.021.828-1.847 1.851-1.847h3.142c1.023 0 1.851.826 1.851 1.847v3.134c0 1.02-.828 1.846-1.851 1.846"/>
            <path stroke="#004F8C" stroke-linecap="round" stroke-width="4" d="M48 46.241h13.689"/>
        </g>
        <circle cx="55.5" cy="122.5" r="5.5" stroke="#004F8C" stroke-width="4" mask="url(#b)"/>
    </g>
</svg>
